<?xml version="1.0" encoding="UTF-8" standalone="no"?><svg xmlns="http://www.w3.org/2000/svg" version="1.1" x="0px" y="0px" viewBox="0 0 1000 1000"><path d="M873.2,624.5c-90.4-74.4-90.2-293.4-90.2-295.8c0-165.5-138.3-230.1-179.7-245.6c-13-43-54.5-73.1-102.9-73.1c-48.1,0-89.5,29.9-102.7,72.7C218.8,146.4,216.9,327,216.9,328.8c0,227.8-85.4,294-87.4,295.4C74,670.5,71.3,734.9,71.3,740.8c10.6,73.6,60.3,99.8,103.1,99.8l645.4-0.2c32.7,0,59.1-9.3,78.3-27.7c30.8-29.3,30.6-70.8,30.6-72.3C928.8,665.9,874.5,625.5,873.2,624.5L873.2,624.5L873.2,624.5z M868.9,785.9c-11.3,10.7-27.8,16.1-49.1,16.1l-643,0.1l-2.5,19.3v-19.2c-15.9,0-54-6.5-62.4-63.2c0-0.6,2.6-50.8,43.4-85c4.2-3,102.3-75.5,102.3-325.2c0-1.6,1.7-161.8,162.3-213c7.9-1.8,13.8-7.8,15.2-15.3c5.4-30.1,32.8-52,65.2-52c32.5,0,59.9,22.1,65.3,52.4c1.3,7.1,6.7,12.9,14,15.1c6.6,2,162.5,50.2,162.5,212.8c-0.1,9.8-0.4,238.9,104.9,325.5c1.7,1.3,40.8,31.2,40.8,86.4C887.9,740.8,887.8,768.3,868.9,785.9L868.9,785.9z M649.8,862.7c-9.6-3.2-19.9,1.8-23.3,11.8c-14.9,45.4-67,77.1-126.6,77.1s-111.6-31.7-126.6-77c-3.3-10-13.7-14.9-23.3-11.8c-9.6,3.5-14.5,14.5-11.3,24.5C358.9,947.8,425,990,499.9,990S641,947.7,661,887.2C664.3,877.1,659.3,866.3,649.8,862.7L649.8,862.7z" id="path4" style="fill:black;fill-opacity:1" /></svg>